<svg width="42" height="30" viewBox="0 0 42 30" fill="none" xmlns="http://www.w3.org/2000/svg">
<path d="M41.3289 26.9825C41.3289 28.3796 40.2388 29.5122 38.8941 29.5122H2.57348C1.22876 29.5122 0.138672 28.3795 0.138672 26.9825V2.52966C0.138672 1.13261 1.22876 0 2.57348 0H38.894C40.2388 0 41.3288 1.13261 41.3288 2.52966L41.3289 26.9825Z" fill="#0099DF"/>
<path d="M27.0654 12.9664C27.0654 11.4597 27.7334 10.1151 28.7786 9.23464C27.9844 8.56558 26.9721 8.16431 25.8699 8.16431C23.3171 8.16431 21.248 10.3142 21.248 12.9664C21.248 15.6185 23.3171 17.7682 25.8699 17.7682C26.9723 17.7682 27.9844 17.3671 28.7786 16.6978C27.7334 15.8176 27.0654 14.4732 27.0654 12.9664Z" fill="#EA001B"/>
<path d="M31.6841 8.16431C30.5817 8.16431 29.5699 8.56558 28.7754 9.23464C29.8208 10.1151 30.4888 11.4597 30.4888 12.9664C30.4888 14.4732 29.8208 15.8176 28.7754 16.6979C29.5699 17.3671 30.5819 17.7683 31.6841 17.7683C34.237 17.7683 36.3061 15.6186 36.3061 12.9664C36.3061 10.3142 34.2369 8.16431 31.6841 8.16431Z" fill="#F79F1A"/>
<path d="M30.4841 12.9659C30.4841 11.4591 29.816 10.1146 28.7705 9.23413C27.7253 10.1146 27.0571 11.4591 27.0571 12.9659C27.0571 14.4726 27.7252 15.8171 28.7705 16.6974C29.8159 15.8171 30.4841 14.4726 30.4841 12.9659Z" fill="#FF5F01"/>
<path d="M13.4776 15.1907C13.4776 15.5281 13.2141 15.8015 12.8897 15.8015H5.59427C5.2695 15.8015 5.00635 15.5281 5.00635 15.1907V9.28431C5.00635 8.94689 5.26958 8.67358 5.59427 8.67358H12.8897C13.2141 8.67358 13.4776 8.94689 13.4776 9.28431V15.1907Z" fill="#FFC715"/>
<path d="M13.5554 21.0329H5.00362C4.63267 21.0329 4.33203 20.7205 4.33203 20.3352C4.33203 19.9498 4.63259 19.6375 5.00362 19.6375H13.5554C13.9264 19.6375 14.227 19.9497 14.227 20.3352C14.227 20.7205 13.9264 21.0329 13.5554 21.0329Z" fill="#34495E"/>
<path d="M13.5554 23.9431H5.00362C4.63267 23.9431 4.33203 23.6308 4.33203 23.2453C4.33203 22.86 4.63259 22.5476 5.00362 22.5476H13.5554C13.9264 22.5476 14.227 22.8599 14.227 23.2453C14.227 23.6307 13.9264 23.9431 13.5554 23.9431Z" fill="#34495E"/>
<path d="M7.28925 15.8027H8.63256V15.1049V9.37229V8.67456H7.28925V9.37229V10.3527H5.67996H5.0083V11.7482H5.67996H7.28925V12.7291H5.67996H5.0083V14.1245H5.67996H7.28925V15.1049V15.8027Z" fill="#FFA617"/>
<path d="M12.8117 11.7482H13.4833V10.3527H12.8117H11.5308V9.37229V8.67456H10.1875V9.37229V13.4267C10.1875 13.812 10.4881 14.1245 10.8592 14.1245H12.8117H13.4833V12.729H12.8117H11.5308V11.7482H12.8117Z" fill="#FFA617"/>
</svg>
