<svg width="42" height="30" viewBox="0 0 42 30" fill="none" xmlns="http://www.w3.org/2000/svg">
<rect x="0.140625" width="41.7893" height="29.5122" rx="2.96501" fill="#0064A7"/>
<path d="M23.3018 18.5645C27.1434 18.586 30.6499 14.9532 30.6499 10.5331C30.6499 5.70032 27.1434 2.35979 23.3018 2.36108H19.9954C16.1081 2.35979 12.9082 5.70097 12.9082 10.5331C12.9082 14.9541 16.1081 18.586 19.9954 18.5645H23.3018Z" fill="#4E5055"/>
<path d="M21.4749 14.8374V6.06128C23.0049 6.73779 24.0912 8.44581 24.0938 10.4492C24.0911 12.4524 23.0049 14.1594 21.4749 14.8374ZM15.9388 10.4491C15.9421 8.44711 17.0268 6.74011 18.5559 6.06137V14.8358C17.0269 14.1574 15.9421 12.4514 15.9388 10.4491ZM20.0157 3.03149C16.4635 3.03279 13.5846 6.35236 13.584 10.4491C13.5847 14.5453 16.4635 17.8641 20.0157 17.8654C23.5692 17.8641 26.4483 14.5453 26.4487 10.4491C26.4483 6.35236 23.5692 3.03279 20.0157 3.03149Z" fill="white"/>
<path d="M6.1881 25.6048C6.1881 26.2644 6.59713 26.3414 6.96088 26.3414C8.56597 26.3414 9.09277 24.9451 9.09277 23.6686C9.09277 22.0668 8.20134 20.9109 6.7679 20.9109C6.46272 20.9109 6.32243 20.9359 6.1881 20.9448V25.6048ZM5.45996 21.5867C5.45996 20.8162 5.11133 20.8668 4.77734 20.8588V20.6362C5.06693 20.6525 5.36383 20.6525 5.6539 20.6525C5.96576 20.6525 6.38911 20.6362 6.93924 20.6362C8.86296 20.6362 9.91036 22.1174 9.91036 23.6345C9.91036 24.4829 9.47961 26.6158 6.84979 26.6158C6.47116 26.6158 6.12165 26.5987 5.77254 26.5987C5.43864 26.5987 5.11125 26.607 4.77734 26.6158V26.3931C5.22258 26.3415 5.43864 26.3245 5.45996 25.7418V21.5867Z" fill="white"/>
<path d="M10.971 21.3809C10.7774 21.3809 10.6068 21.1751 10.6068 20.9524C10.6068 20.7379 10.7855 20.5405 10.971 20.5405C11.1636 20.5405 11.3349 20.7209 11.3349 20.9524C11.335 21.1841 11.1711 21.3809 10.971 21.3809ZM10.1758 26.3922H10.317C10.5246 26.3922 10.6733 26.3922 10.6733 26.1088V23.7877C10.6733 23.4111 10.5621 23.3589 10.287 23.1884V23.0513C10.6362 22.9307 11.0526 22.7686 11.0819 22.7429C11.1343 22.7087 11.1785 22.6996 11.216 22.6996C11.2527 22.6996 11.2679 22.7512 11.2679 22.8202V26.1088C11.2679 26.3922 11.4314 26.3922 11.6397 26.3922H11.7657V26.6149C11.5129 26.6149 11.2526 26.5978 10.9858 26.5978C10.7181 26.5978 10.4506 26.6061 10.1758 26.6149V26.3922Z" fill="white"/>
<path d="M12.473 23.8383C12.473 23.5216 12.3909 23.4362 12.0423 23.2733V23.1105C12.3615 22.9904 12.6658 22.8789 13.0229 22.6987C13.0452 22.6987 13.067 22.7165 13.067 22.7842V23.3414C13.4912 22.9905 13.8554 22.6987 14.3541 22.6987C14.9852 22.6987 15.2082 23.2302 15.2082 23.8986V26.1088C15.2082 26.3922 15.3717 26.3922 15.5798 26.3922H15.7139V26.615C15.4529 26.615 15.1931 26.5978 14.926 26.5978C14.658 26.5978 14.3905 26.6062 14.1229 26.615V26.3922H14.2568C14.4651 26.3922 14.6131 26.3922 14.6131 26.1088V23.8903C14.6131 23.4014 14.3542 23.1617 13.93 23.1617C13.6922 23.1617 13.3132 23.3842 13.067 23.5732V26.1088C13.067 26.3922 13.2313 26.3922 13.4395 26.3922H13.5731V26.615C13.3131 26.615 13.0526 26.5978 12.7849 26.5978C12.5179 26.5978 12.2499 26.6062 11.9824 26.615V26.3922H12.1164C12.3245 26.3922 12.473 26.3922 12.473 26.1088V23.8383Z" fill="white"/>
<path d="M17.5864 23.9756C17.7719 23.9756 17.7936 23.8641 17.7936 23.7616C17.7936 23.3246 17.5634 22.9731 17.147 22.9731C16.6939 22.9731 16.3818 23.3581 16.2926 23.9756H17.5864ZM16.2708 24.2502C16.2553 24.3275 16.2553 24.4555 16.2708 24.7473C16.3145 25.5611 16.7688 26.2294 17.3626 26.2294C17.7719 26.2294 18.0919 25.9721 18.3665 25.6553L18.4702 25.7753C18.1282 26.298 17.7047 26.7437 17.0957 26.7437C15.9135 26.7437 15.6758 25.4238 15.6758 24.8756C15.6758 23.1957 16.6567 22.6987 17.1766 22.6987C17.7791 22.6987 18.4262 23.1357 18.433 24.044C18.433 24.096 18.433 24.1468 18.4263 24.1988L18.3587 24.2502H16.2708Z" fill="white"/>
<path d="M18.6075 26.3922H18.8083C19.0158 26.3922 19.1646 26.3922 19.1646 26.1088V23.7016C19.1646 23.4363 18.8897 23.3843 18.778 23.316V23.1876C19.3206 22.9219 19.618 22.6987 19.6858 22.6987C19.7294 22.6987 19.7518 22.7244 19.7518 22.8106V23.5817H19.7675C19.9527 23.2476 20.2652 22.6987 20.7183 22.6987C20.9043 22.6987 21.142 22.8441 21.142 23.1527C21.142 23.3843 21.001 23.5907 20.7928 23.5907C20.5615 23.5907 20.5615 23.3843 20.3018 23.3843C20.1752 23.3843 19.7592 23.5817 19.7592 24.096V26.1088C19.7592 26.3922 19.9076 26.3922 20.116 26.3922H20.5319V26.615C20.1229 26.6062 19.812 26.5978 19.4918 26.5978C19.1873 26.5978 18.875 26.6062 18.6074 26.615V26.3922H18.6075Z" fill="white"/>
<path d="M21.4663 25.4238C21.5629 25.9891 21.8601 26.4692 22.4029 26.4692C22.8408 26.4692 23.0042 26.1607 23.0042 25.861C23.0042 24.8498 21.3846 25.1752 21.3846 23.796C21.3846 23.3159 21.7194 22.6987 22.5366 22.6987C22.7741 22.6987 23.0936 22.7761 23.3834 22.9477L23.4354 23.8209H23.2647C23.1905 23.2817 22.9304 22.9735 22.4544 22.9735C22.1569 22.9735 21.8748 23.1704 21.8748 23.5388C21.8748 24.542 23.5992 24.2327 23.5992 25.578C23.5992 26.1434 23.2054 26.7437 22.3206 26.7437C22.0234 26.7437 21.6741 26.6237 21.4142 26.4524L21.332 25.4671L21.4663 25.4238Z" fill="white"/>
<path d="M30.3085 22.1865H30.123C29.9816 21.1851 29.3649 20.7819 28.5334 20.7819C27.6786 20.7819 26.4377 21.4411 26.4377 23.4973C26.4377 25.2284 27.5084 26.4702 28.6517 26.4702C29.387 26.4702 29.9966 25.8881 30.1454 24.9879L30.316 25.0392L30.1454 26.29C29.8332 26.5134 28.9937 26.7446 28.5031 26.7446C26.7653 26.7446 25.666 25.4509 25.666 23.5233C25.666 21.767 27.0251 20.5071 28.481 20.5071C29.0826 20.5071 29.6623 20.7305 30.2339 20.962L30.3085 22.1865Z" fill="white"/>
<path d="M30.5762 26.3918H30.7168C30.9254 26.3918 31.0741 26.3918 31.0741 26.1084V21.3376C31.0741 20.7806 30.9625 20.7635 30.6802 20.6694V20.5323C30.9773 20.4211 31.2894 20.267 31.4454 20.1636C31.5266 20.1125 31.5865 20.0691 31.6084 20.0691C31.6534 20.0691 31.6686 20.1209 31.6686 20.1895V26.1084C31.6686 26.3918 31.8318 26.3918 32.0401 26.3918H32.1657V26.6145C31.9138 26.6145 31.6534 26.5974 31.3862 26.5974C31.1189 26.5974 30.8513 26.6057 30.5762 26.6145V26.3918Z" fill="white"/>
<path d="M35.3453 26.1443C35.3453 26.299 35.4265 26.3071 35.5529 26.3071C35.6421 26.3071 35.7534 26.299 35.8504 26.299V26.4792C35.5304 26.5134 34.921 26.6933 34.7797 26.7446L34.7425 26.7188V26.0249C34.2971 26.4446 33.955 26.7446 33.4265 26.7446C33.0252 26.7446 32.6093 26.4447 32.6093 25.7253V23.531C32.6093 23.3082 32.5797 23.0941 32.1641 23.0515V22.8884C32.4317 22.8799 33.0252 22.8286 33.1223 22.8286C33.2046 22.8286 33.2046 22.8884 33.2046 23.077V25.2874C33.2046 25.5447 33.2046 26.2815 33.8508 26.2815C34.1034 26.2815 34.4379 26.0587 34.7497 25.7595V23.4536C34.7497 23.2826 34.3931 23.1888 34.1261 23.1031V22.9486C34.7942 22.897 35.211 22.8286 35.2853 22.8286C35.3451 22.8286 35.3451 22.8884 35.3451 22.9831V26.1443H35.3453Z" fill="white"/>
<path d="M36.8225 25.6459C36.8225 25.9715 37.0898 26.5202 37.5877 26.5202C38.3828 26.5202 38.7169 25.6204 38.7169 24.8576C38.7169 23.9327 38.1082 23.162 37.5287 23.162C37.2528 23.162 37.0229 23.368 36.8225 23.565V25.6459ZM36.8225 23.3158C37.1194 23.0249 37.521 22.6991 37.9296 22.6991C38.7916 22.6991 39.3114 23.565 39.3114 24.4983C39.3114 25.6205 38.5981 26.743 37.5352 26.743C36.986 26.743 36.6962 26.5374 36.5026 26.4432L36.2801 26.6399L36.1246 26.546C36.1902 26.0405 36.2282 25.5434 36.2282 25.0209V21.3376C36.2282 20.7804 36.1162 20.7633 35.834 20.6692V20.5321C36.1318 20.4209 36.4433 20.2668 36.5994 20.1635C36.6812 20.1124 36.7404 20.0691 36.7632 20.0691C36.8078 20.0691 36.8225 20.1209 36.8225 20.1893V23.3158Z" fill="white"/>
</svg>
