<svg width="42" height="30" viewBox="0 0 42 30" fill="none" xmlns="http://www.w3.org/2000/svg">
<path d="M41.4773 26.9825C41.4773 28.3796 40.3872 29.5122 39.0425 29.5122H2.72192C1.3772 29.5122 0.287109 28.3795 0.287109 26.9825V2.52966C0.287109 1.13252 1.3772 0 2.72192 0H39.0424C40.3872 0 41.4772 1.13261 41.4772 2.52966L41.4773 26.9825Z" fill="#34495E"/>
<path d="M25.1777 14.7407C25.181 13.9353 24.8904 13.1287 24.3055 12.5209C23.7194 11.9119 22.9412 11.6101 22.1645 11.615C22.1608 11.615 22.1572 11.6147 22.1533 11.6147C20.4667 11.6147 19.1289 13.0045 19.1289 14.7576C19.1289 16.4933 20.4832 17.9001 22.1533 17.9001C23.8404 17.9001 25.1781 16.5101 25.1781 14.7576C25.1781 14.7518 25.1777 14.7464 25.1777 14.7407Z" fill="#F26E21"/>
<path d="M18.5633 16.0865C18.1113 16.5567 17.694 16.7404 17.2446 16.7504C16.1498 16.7402 15.3449 15.8977 15.3449 14.6965C15.3449 14.0919 15.5652 13.5963 15.9142 13.173C16.2415 12.8501 16.6632 12.6415 17.148 12.6415C17.6714 12.6415 18.0788 12.8228 18.5438 13.3063V11.9163C18.0789 11.6747 17.6714 11.5537 17.148 11.5537C16.4087 11.6086 15.7115 11.919 15.1768 12.4065C15.0227 12.5506 14.875 12.7096 14.7497 12.8917C14.3591 13.4177 14.123 14.0619 14.123 14.7572C14.123 16.5096 15.4613 17.8392 17.148 17.8392C17.1562 17.8392 17.1643 17.8385 17.1723 17.8384C17.1836 17.8386 17.1948 17.8392 17.206 17.8392C17.6713 17.8392 18.0788 17.7186 18.6022 17.4768L18.5633 16.0865C18.5437 16.1069 18.5828 16.1258 18.5633 16.1451V16.0865Z" fill="#E7E8E3"/>
<path d="M29.006 12.418L27.6887 15.7832L26.1764 11.7939H24.9551L27.3397 17.8983H27.9795L30.4806 11.7939H29.2593L29.006 12.418Z" fill="#E7E8E3"/>
<path d="M30.9395 14.4536V17.7175H34.0813H34.1392V16.7501H33.1502H32.103V15.6625V15.1187H34.0813V14.0909H32.103V12.8218H34.1392V11.7942H30.9395V14.4536Z" fill="#E7E8E3"/>
<path d="M4.64651 11.7952H3.01758V17.7185H4.64643C5.51877 17.7185 6.15848 17.4765 6.68197 17.0534C7.32168 16.5095 7.72902 15.6635 7.72902 14.7571C7.7291 13.0039 6.50742 11.7952 4.64651 11.7952ZM5.98418 16.2679C5.63516 16.57 5.16983 16.7511 4.4718 16.7511H4.12278V12.8227H4.41356C5.1116 12.8227 5.57692 12.9436 5.92602 13.3061C6.33311 13.6685 6.5659 14.2127 6.5659 14.7569C6.62405 15.3008 6.39143 15.9049 5.98418 16.2679Z" fill="#E7E8E3"/>
<path d="M9.36516 11.7942H8.25977V17.7173H9.36516V11.7942Z" fill="#E7E8E3"/>
<path d="M12.1575 14.0927C11.4594 13.8509 11.2847 13.6695 11.2847 13.3674C11.2847 13.0048 11.6338 12.7026 12.0992 12.7026C12.4483 12.7026 12.7392 12.8236 13.0301 13.1862L13.612 12.4006C13.1464 11.9773 12.5649 11.7358 11.9249 11.7358C10.9356 11.7358 10.121 12.4612 10.121 13.4279C10.121 14.2742 10.4704 14.6368 11.5175 15.0599C11.9829 15.2409 12.1575 15.3016 12.2741 15.4224C12.5064 15.5431 12.623 15.7851 12.623 16.0265C12.623 16.5101 12.2741 16.8729 11.7502 16.8729C11.2261 16.8729 10.761 16.5707 10.5283 16.0871L9.83008 16.8125C10.3539 17.5981 10.9939 17.9607 11.8084 17.9607C12.9719 17.9607 13.7861 17.175 13.7861 16.0265C13.7862 14.9993 13.4374 14.5763 12.1575 14.0927Z" fill="#E7E8E3"/>
<path d="M37.2834 15.2389C38.1556 15.0579 38.6211 14.4532 38.6211 13.5469C38.6211 12.4592 37.8648 11.7939 36.5854 11.7939H34.8984V17.7172H36.0036V15.3598H36.1783L37.7483 17.7172H39.0863L37.2834 15.2389ZM36.3524 14.5136H36.0036V12.7006H36.3524C37.0505 12.7006 37.4578 13.0027 37.4578 13.6075C37.4578 14.2116 37.0505 14.5136 36.3524 14.5136Z" fill="#E7E8E3"/>
</svg>
