<svg width="42" height="30" viewBox="0 0 42 30" fill="none" xmlns="http://www.w3.org/2000/svg">
<path d="M3.60832 28.9458C2.11463 28.9458 0.898438 27.6722 0.898438 26.108V3.40632C0.898438 1.84217 2.11463 0.568604 3.60832 0.568604H38.2948C39.7885 0.568604 41.0047 1.84217 41.0047 3.40632V26.108C41.0047 27.6722 39.7885 28.9458 38.2948 28.9458H3.60832Z" fill="#E1EBF2"/>
<path d="M38.2977 1.13509C39.4933 1.13509 40.4656 2.15326 40.4656 3.40526V26.107C40.4656 27.359 39.4933 28.3772 38.2977 28.3772H3.61123C2.41563 28.3772 1.44333 27.359 1.44333 26.107V3.40526C1.44333 2.15326 2.41563 1.13509 3.61123 1.13509H38.2977ZM38.2977 0H3.61123C1.81512 0 0.359375 1.52442 0.359375 3.40526V26.107C0.359375 27.9878 1.81512 29.5122 3.61123 29.5122H38.2977C40.0938 29.5122 41.5496 27.9878 41.5496 26.107V3.40526C41.5496 1.52442 40.0938 0 38.2977 0Z" fill="#788B9C"/>
<path d="M35.0389 26.1094H28.5352V7.94806C28.5352 5.44065 30.4765 3.40771 32.871 3.40771H39.3747V21.5691C39.3747 24.0765 37.4333 26.1094 35.0389 26.1094Z" fill="#5E9C76"/>
<path d="M22.0408 26.1094H15.5371V7.94806C15.5371 5.44065 17.4785 3.40771 19.8729 3.40771H26.3766V21.5691C26.3766 24.0765 24.4353 26.1094 22.0408 26.1094Z" fill="#C74343"/>
<path d="M9.03497 26.1094H2.53125V7.94806C2.53125 5.44065 4.47261 3.40771 6.86706 3.40771H13.3708V21.5691C13.3708 24.0765 11.4294 26.1094 9.03497 26.1094Z" fill="#4E7AB5"/>
<path d="M12.2868 15.1359C12.2868 17.8613 9.40785 19.2994 7.30281 19.2994C5.0135 19.2994 2.96808 17.6354 2.53125 15.5185H4.07913C4.26341 16.8045 5.32026 17.7092 6.49418 17.7092C7.79492 17.7092 8.72279 16.5741 8.72279 15.1359V10.2188H12.2847V15.1359H12.2868Z" fill="white"/>
<path d="M36.4133 14.7829C37.352 14.7829 38.01 13.6047 38.01 12.4254C38.01 11.2426 37.1927 10.2188 36.254 10.2188H28.5352V19.2994H36.4133C37.4767 19.2994 38.2896 18.1246 38.2907 16.9419C38.2907 15.7648 37.4789 14.7829 36.4133 14.7829ZM31.5388 11.1654H33.9777C34.5988 11.1654 35.1624 11.868 35.1624 12.6535C35.1624 13.4435 34.5988 14.1541 33.9777 14.1541H31.5388V11.1654ZM34.0384 18.3596H31.5399V15.3675H34.0384C34.6649 15.3675 35.2275 16.0747 35.2275 16.8647C35.2275 17.6479 34.6649 18.3596 34.0384 18.3596Z" fill="white"/>
<path d="M25.2927 11.8694C23.8066 11.454 22.3834 11.2122 21.6712 11.2122C20.1211 11.2122 18.8952 12.7775 18.8952 14.7571C18.8952 16.7457 20.1211 18.3144 21.6712 18.3144C22.3823 18.3144 23.8055 18.1498 25.2927 17.7299V19.2997H19.0881C17.1511 19.2997 15.5371 17.2338 15.5371 14.7559C15.5371 12.2826 17.1511 10.219 19.0881 10.219H25.2927V11.8694Z" fill="white"/>
</svg>
