<?xml version="1.0" encoding="iso-8859-1"?>
<!-- Generator: Adobe Illustrator 21.0.2, SVG Export Plug-In . SVG Version: 6.00 Build 0)  -->
<svg version="1.1" id="Layer_1" xmlns="http://www.w3.org/2000/svg" xmlns:xlink="http://www.w3.org/1999/xlink" x="0px" y="0px"
	 viewBox="0 0 40 40" style="enable-background:new 0 0 40 40;" xml:space="preserve">
<g>
	<path style="fill:#E1EBF2;" d="M4,32.5c-1.378,0-2.5-1.122-2.5-2.5V10c0-1.378,1.122-2.5,2.5-2.5h32c1.378,0,2.5,1.122,2.5,2.5v20
		c0,1.378-1.122,2.5-2.5,2.5H4z"/>
	<path style="fill:#788B9C;" d="M36,8c1.103,0,2,0.897,2,2v20c0,1.103-0.897,2-2,2H4c-1.103,0-2-0.897-2-2V10c0-1.103,0.897-2,2-2
		H36 M36,7H4c-1.657,0-3,1.343-3,3v20c0,1.657,1.343,3,3,3h32c1.657,0,3-1.343,3-3V10C39,8.343,37.657,7,36,7L36,7z"/>
</g>
<g>
	<path style="fill:#5E9C76;" d="M33,30h-6V14c0-2.209,1.791-4,4-4h6v16C37,28.209,35.209,30,33,30z"/>
</g>
<g>
	<path style="fill:#C74343;" d="M21,30h-6V14c0-2.209,1.791-4,4-4h6v16C25,28.209,23.209,30,21,30z"/>
</g>
<g>
	<path style="fill:#4E7AB5;" d="M9,30H3V14c0-2.209,1.791-4,4-4h6v16C13,28.209,11.209,30,9,30z"/>
</g>
<g>
	<path style="fill:#FFFFFF;" d="M12,20.332C12,22.733,9.344,24,7.402,24C5.29,24,3.403,22.534,3,20.669h1.428
		c0.17,1.133,1.145,1.93,2.228,1.93c1.2,0,2.056-1,2.056-2.267V16h3.286v4.332H12z"/>
</g>
<g>
	<path style="fill:#FFFFFF;" d="M34.268,20.021c0.866,0,1.473-1.038,1.473-2.077c0-1.042-0.754-1.944-1.62-1.944H27v8h7.268
		c0.981,0,1.731-1.035,1.732-2.077C36,20.886,35.251,20.021,34.268,20.021z M29.771,16.834h2.25c0.573,0,1.093,0.619,1.093,1.311
		c0,0.696-0.52,1.322-1.093,1.322h-2.25V16.834z M32.077,23.172h-2.305v-2.636h2.305c0.578,0,1.097,0.623,1.097,1.319
		C33.174,22.545,32.655,23.172,32.077,23.172z"/>
</g>
<g>
	<path style="fill:#FFFFFF;" d="M24,17.454c-1.371-0.366-2.684-0.579-3.341-0.579c-1.43,0-2.561,1.379-2.561,3.123
		c0,1.752,1.131,3.134,2.561,3.134c0.656,0,1.969-0.145,3.341-0.515V24h-5.724C16.489,24,15,22.18,15,19.997
		C15,17.818,16.489,16,18.276,16H24V17.454z"/>
</g>
</svg>
