<svg width="42" height="30" viewBox="0 0 42 30" fill="none" xmlns="http://www.w3.org/2000/svg">
<rect x="0.213867" y="0.000488281" width="41.5102" height="29.7982" rx="2.96501" fill="#FEB3C7"/>
<path d="M35.2661 13.7587C35.2452 13.4737 35.3753 13.4172 35.5994 13.4303C35.9687 13.4494 36.3392 13.4428 36.7104 13.4303C36.8927 13.4257 36.9561 13.4868 36.9554 13.6733C36.9493 15.3883 36.9493 17.1031 36.9554 18.8177C36.9554 19.0253 36.8822 19.0804 36.6895 19.0732C36.3418 19.0607 35.9928 19.0581 35.6439 19.0732C35.4125 19.0837 35.2295 19.0673 35.2596 18.7612C33.5108 19.5119 32.179 19.2531 31.2733 18.0059C30.8769 17.4513 30.6804 16.7776 30.716 16.0957C30.7517 15.4138 31.0174 14.7644 31.4693 14.2546C32.3065 13.2983 33.8324 12.9049 35.2661 13.7587ZM32.2953 16.2183C32.2935 16.4125 32.3304 16.6051 32.4038 16.7848C32.4772 16.9645 32.5858 17.1275 32.7229 17.2643C32.8601 17.4012 33.0232 17.509 33.2025 17.5814C33.3818 17.6539 33.5738 17.6895 33.767 17.6861C34.5839 17.6861 35.2648 17.0418 35.2616 16.2682C35.2574 15.8816 35.1015 15.5123 34.8277 15.2407C34.5539 14.9691 34.1844 14.8171 33.7997 14.818C32.9789 14.8088 32.2973 15.4433 32.2953 16.2183Z" fill="#06202B"/>
<path d="M17.7721 18.7367C16.2214 19.6391 14.7255 19.1518 13.908 18.1673C13.4756 17.6476 13.2318 16.9957 13.2166 16.3185C13.2014 15.6412 13.4157 14.9789 13.8244 14.4402C14.7393 13.2357 16.1025 12.9848 17.7682 13.7328C17.7375 13.4465 17.9054 13.4209 18.1257 13.4294C18.4844 13.4432 18.8445 13.4393 19.202 13.4294C19.3726 13.4255 19.4588 13.4636 19.4582 13.6619C19.4529 15.387 19.4529 17.1127 19.4582 18.8392C19.4582 19.0362 19.3719 19.0743 19.202 19.0703C18.8432 19.0618 18.4831 19.0579 18.1257 19.0703C17.9035 19.0822 17.7388 19.0513 17.7721 18.7367ZM16.288 14.8171C15.4797 14.8171 14.8066 15.4437 14.8007 16.2023C14.7941 17.0442 15.4437 17.6918 16.29 17.6859C17.0912 17.68 17.7604 17.0449 17.7682 16.283C17.7767 15.4746 17.1134 14.8178 16.288 14.8171Z" fill="#06202B"/>
<path d="M26.1106 13.9717C26.638 13.4155 27.2647 13.2539 27.9672 13.2887C29.2089 13.3504 30.0996 14.2009 30.1394 15.4514C30.1754 16.5745 30.146 17.6995 30.1525 18.8239C30.1525 19.0058 30.0937 19.0767 29.9088 19.0721C29.5167 19.0623 29.1246 19.059 28.7357 19.0721C28.5175 19.08 28.4554 18.9973 28.458 18.7878C28.4671 17.9911 28.4619 17.1944 28.4613 16.3971C28.4613 16.2881 28.4613 16.1791 28.458 16.0687C28.4292 15.2616 28.0456 14.8544 27.3196 14.8584C26.5694 14.863 26.1132 15.3181 26.1054 16.0931C26.0969 16.9771 26.0923 17.861 26.1087 18.745C26.1139 19.013 26.0244 19.0839 25.7741 19.0734C25.4055 19.0557 25.035 19.0603 24.6631 19.0734C24.471 19.0793 24.3952 19.0229 24.3965 18.8167C24.403 17.1029 24.403 15.3895 24.3965 13.6762C24.3965 13.4897 24.4619 13.4266 24.6429 13.4312C25.0121 13.4411 25.3826 13.4509 25.7538 13.4312C26.0152 13.4148 26.1106 13.512 26.0806 13.7642C26.0842 13.8341 26.0943 13.9036 26.1106 13.9717Z" fill="#06202B"/>
<path d="M10.2272 19.0683C9.52799 19.0683 8.85489 19.065 8.18048 19.0716C8.03998 19.0716 7.96156 19.0059 7.88837 18.9028C7.04928 17.7469 6.21476 16.589 5.36848 15.439C5.23256 15.2551 5.32143 15.1763 5.45801 15.0805C6.2311 14.5334 6.90551 13.8983 7.33028 13.0261C7.6078 12.4683 7.76712 11.8587 7.79819 11.2358C7.81126 10.9573 7.92104 10.9219 8.15042 10.9304C8.53076 10.9448 8.9124 10.9501 9.29143 10.9304C9.56002 10.9153 9.6417 10.9855 9.62471 11.2719C9.53061 12.8218 8.98232 14.1787 7.94718 15.33C7.79557 15.4988 7.77858 15.598 7.91974 15.7897C8.63466 16.7519 9.3326 17.7265 10.0331 18.6998C10.1063 18.7977 10.2142 18.8837 10.2272 19.0683Z" fill="#06202B"/>
<path d="M3.18589 14.9946C3.18589 13.7507 3.19112 12.5069 3.18066 11.263C3.18066 11.0219 3.22118 10.9122 3.495 10.928C3.92826 10.953 4.36415 10.9424 4.80199 10.928C4.98758 10.9227 5.04248 10.9864 5.04182 11.1703C5.03703 13.7229 5.03703 16.276 5.04182 18.8295C5.04182 19.0193 4.97125 19.0731 4.79284 19.0692C4.34781 19.0607 3.90213 19.0561 3.45709 19.0692C3.23883 19.0764 3.18328 18.997 3.18458 18.7868C3.19177 17.5258 3.18589 16.2602 3.18589 14.9946Z" fill="#06202B"/>
<path d="M12.5557 15.0037C12.5557 16.2483 12.5505 17.4928 12.5603 18.7374C12.5603 18.9791 12.5185 19.094 12.2414 19.075C11.8616 19.054 11.4809 19.054 11.1011 19.075C10.873 19.0855 10.8031 19.0093 10.805 18.7801C10.8148 17.6445 10.8096 16.5097 10.8096 15.3741C10.8096 13.9982 10.8142 12.623 10.8037 11.2471C10.8037 11.0133 10.8488 10.9141 11.1063 10.9298C11.4861 10.9509 11.8668 10.9509 12.2466 10.9298C12.4878 10.918 12.5636 10.9896 12.561 11.2385C12.5492 12.4923 12.5557 13.748 12.5557 15.0037Z" fill="#06202B"/>
<path d="M22.0525 14.0848C22.4563 13.7269 22.8641 13.5246 23.3412 13.457C23.5634 13.4261 23.662 13.4622 23.6516 13.7124C23.6352 14.0822 23.6411 14.4539 23.6516 14.8244C23.6555 14.9918 23.6215 15.0746 23.4287 15.0936C23.1243 15.125 22.8339 15.2385 22.5883 15.422C22.2237 15.6893 22.0257 16.0367 22.0342 16.5069C22.0472 17.2484 22.0257 17.9906 22.0433 18.7314C22.0499 19.0105 21.9551 19.09 21.6885 19.0756C21.3101 19.0545 20.9285 19.0631 20.5488 19.0756C20.3638 19.0802 20.3018 19.0099 20.3018 18.828C20.3057 17.1156 20.3057 15.4032 20.3018 13.6908C20.3018 13.4865 20.3795 13.4281 20.5717 13.4333C20.9298 13.4445 21.2905 13.4524 21.6467 13.4333C21.9296 13.4162 22.0838 13.4845 22.0388 13.8031C22.0346 13.8972 22.0392 13.9915 22.0525 14.0848Z" fill="#06202B"/>
<path d="M38.7132 19.1759C38.5052 19.179 38.3011 19.1201 38.1264 19.0067C37.9518 18.8932 37.8146 18.7303 37.732 18.5385C37.6494 18.3467 37.6253 18.1346 37.6626 17.929C37.6999 17.7234 37.7969 17.5335 37.9415 17.3834C38.0861 17.2332 38.2718 17.1294 38.475 17.0852C38.6782 17.041 38.89 17.0583 39.0834 17.1349C39.2769 17.2116 39.4434 17.3441 39.562 17.5157C39.6805 17.6874 39.7458 17.8905 39.7496 18.0995C39.7526 18.3799 39.6454 18.6502 39.4514 18.8517C39.2574 19.0532 38.9921 19.1697 38.7132 19.1759Z" fill="#06202B"/>
</svg>
