<svg width="42" height="30" viewBox="0 0 42 30" fill="none" xmlns="http://www.w3.org/2000/svg">
<path d="M8.13095 0H18.4118C19.8469 0 20.7395 1.33985 20.4047 2.98911L15.6183 26.5277C15.2805 28.1713 13.8436 29.5122 12.4075 29.5122H2.12761C0.694496 29.5122 -0.200103 28.1713 0.134682 26.5277L4.92317 2.98911C5.25795 1.33985 6.69407 0 8.13095 0Z" fill="#E21836"/>
<path d="M17.5541 0H29.3769C30.8117 0 30.1647 1.33985 29.8272 2.98911L25.0414 26.5277C24.7057 28.1713 24.8104 29.5122 23.3725 29.5122H11.5498C10.1119 29.5122 9.22208 28.1713 9.55987 26.5277L14.3453 2.98911C14.6851 1.33985 16.1183 0 17.5541 0Z" fill="#00447C"/>
<path d="M28.913 0H39.1939C40.631 0 41.5236 1.33985 41.1861 2.98911L36.4003 26.5277C36.0625 28.1713 34.6247 29.5122 33.1878 29.5122H22.9117C21.4738 29.5122 20.582 28.1713 20.9188 26.5277L25.7052 2.98911C26.04 1.33985 27.4751 0 28.913 0Z" fill="#007B84"/>
<path d="M10.8209 7.544C9.76365 7.55635 9.45142 7.544 9.35169 7.51702C9.31335 7.72569 8.59992 11.4952 8.59792 11.4984C8.44431 12.261 8.33255 12.8047 7.9529 13.1557C7.7374 13.3598 7.48581 13.4582 7.19412 13.4582C6.72527 13.4582 6.45213 13.1916 6.40628 12.6858L6.39751 12.5122C6.39751 12.5122 6.54034 11.4906 6.54034 11.4849C6.54034 11.4849 7.2891 8.04975 7.42316 7.59567C7.43018 7.56984 7.43218 7.55635 7.43394 7.544C5.97652 7.55864 5.71816 7.544 5.70037 7.51702C5.6906 7.55405 5.65451 7.76702 5.65451 7.76702L4.88997 11.6387L4.82431 11.9671L4.69727 13.0412C4.69727 13.3598 4.75189 13.6198 4.86065 13.8397C5.20897 14.5369 6.20255 14.6413 6.76462 14.6413C7.48882 14.6413 8.16816 14.4651 8.62724 14.1434C9.42411 13.604 9.6326 12.761 9.81853 12.0119L9.90473 11.6276C9.90473 11.6276 10.676 8.05979 10.8071 7.59567C10.8121 7.56984 10.8141 7.55635 10.8209 7.544ZM13.4452 10.4221C13.2593 10.4221 12.9195 10.4738 12.6143 10.6452C12.5035 10.7103 12.3988 10.7855 12.2883 10.8604L12.388 10.448L12.3334 10.3785C11.6861 10.5286 11.5412 10.5487 10.9433 10.6452L10.8932 10.6833C10.8238 11.3426 10.7622 11.8383 10.5048 13.1343C10.4068 13.6119 10.3051 14.0941 10.2031 14.5706L10.2307 14.6311C10.8434 14.5941 11.0293 14.5941 11.5618 14.6042L11.6049 14.5505C11.6726 14.1535 11.6813 14.0605 11.8312 13.2566C11.9016 12.8754 12.0484 12.0378 12.1209 11.7396C12.2539 11.669 12.3852 11.5995 12.5105 11.5995C12.809 11.5995 12.7726 11.8978 12.7611 12.0166C12.7483 12.2161 12.6396 12.8676 12.5281 13.427L12.4536 13.7881C12.4018 14.0548 12.3449 14.314 12.293 14.5783L12.3156 14.6311C12.9195 14.5941 13.1037 14.5941 13.6194 14.6042L13.68 14.5505C13.7732 13.9305 13.8006 13.7646 13.9659 12.8619L14.0491 12.4471C14.2108 11.6354 14.292 11.2238 14.1697 10.8886C14.0404 10.5129 13.7301 10.4221 13.4452 10.4221ZM16.3769 11.272C16.0559 11.3426 15.8512 11.3897 15.6477 11.4201C15.446 11.4571 15.2493 11.4907 14.939 11.5401L14.9145 11.5656L14.8919 11.586C14.8596 11.8507 14.837 12.0794 14.7942 12.3484C14.7578 12.6265 14.702 12.9425 14.611 13.3966C14.5406 13.7442 14.5043 13.8653 14.4642 13.9876C14.4251 14.1099 14.382 14.2287 14.3028 14.5705L14.3213 14.6021L14.3369 14.6311C14.6268 14.6153 14.8165 14.6041 15.0114 14.6021C15.2062 14.5941 15.4079 14.6021 15.7201 14.6041L15.7474 14.5786L15.7767 14.5504C15.8218 14.2422 15.8286 14.1592 15.8562 14.0088C15.8835 13.8475 15.9306 13.6242 16.0461 13.0278C16.1007 12.7476 16.1616 12.4683 16.2183 12.1825C16.2772 11.8977 16.3388 11.6173 16.3974 11.3372L16.3887 11.3033L16.3769 11.272ZM16.3837 10.1261C16.0921 9.92895 15.5801 9.99152 15.2355 10.2639C14.892 10.5308 14.8529 10.9097 15.1436 11.1095C15.4303 11.3012 15.9442 11.2441 16.2858 10.9694C16.6286 10.6967 16.6714 10.3213 16.3837 10.1261ZM18.1478 14.6929C18.7379 14.6929 19.3428 14.5066 19.7981 13.9538C20.1484 13.5055 20.3091 12.8384 20.3647 12.5637C20.5459 11.6533 20.4048 11.2282 20.2276 10.9693C19.9585 10.5746 19.4829 10.448 18.9895 10.448C18.6928 10.448 17.9861 10.4816 17.4341 11.0646C17.0376 11.4851 16.8545 12.0557 16.744 12.6028C16.6324 13.1602 16.5041 14.1636 17.3098 14.537C17.5584 14.6593 17.9167 14.6929 18.1478 14.6929ZM18.1016 12.6444C18.2377 11.9549 18.3983 11.3763 18.8083 11.3763C19.1296 11.3763 19.1529 11.8068 19.01 12.4986C18.9845 12.6521 18.8672 13.223 18.7086 13.4661C18.5978 13.6455 18.4668 13.7543 18.3219 13.7543C18.2788 13.7543 18.0225 13.7543 18.0184 13.3183C18.0164 13.1031 18.0548 12.8832 18.1016 12.6444ZM21.8399 14.6042L21.886 14.5506C21.9514 14.1536 21.9622 14.0603 22.107 13.2566C22.1795 12.8755 22.3293 12.0379 22.3997 11.7397C22.533 11.6688 22.6621 11.5993 22.7914 11.5993C23.0878 11.5993 23.0518 11.8976 23.04 12.0164C23.0292 12.2162 22.9205 12.8674 22.8069 13.4268L22.7365 13.7879C22.6826 14.0549 22.624 14.3138 22.5721 14.5784L22.5947 14.6312C23.2006 14.5942 23.3778 14.5942 23.8965 14.6042L23.9591 14.5506C24.0501 13.9303 24.0747 13.7644 24.2451 12.862L24.3263 12.4469C24.4886 11.6352 24.5708 11.2239 24.4505 10.8887C24.3175 10.5129 24.0052 10.4222 23.7243 10.4222C23.5382 10.4222 23.1966 10.4736 22.8931 10.6453C22.7846 10.7104 22.6759 10.7853 22.5691 10.8605L22.6621 10.4481L22.6122 10.3783C21.9652 10.5287 21.8174 10.5488 21.2202 10.6453L21.1744 10.6834C21.1019 11.3427 21.043 11.8381 20.7857 13.1344C20.6877 13.612 20.586 14.0942 20.4842 14.5707L20.5115 14.6312C21.1252 14.5942 21.3084 14.5942 21.8399 14.6042ZM26.2917 14.6311C26.3298 14.4181 26.5561 13.1557 26.5581 13.1557C26.5581 13.1557 26.7508 12.2295 26.7626 12.1959C26.7626 12.1959 26.8232 12.0995 26.8839 12.0613H26.9731C27.8148 12.0613 28.7653 12.0613 29.5103 11.4336C30.0172 11.003 30.3638 10.3673 30.5184 9.59459C30.5585 9.40515 30.5881 9.17983 30.5881 8.95452C30.5881 8.65859 30.5362 8.36582 30.3863 8.13706C30.0065 7.52827 29.2499 7.51708 28.3766 7.51249C28.3739 7.51249 27.9461 7.51708 27.9461 7.51708C26.8282 7.53287 26.3799 7.52827 26.1958 7.50244C26.1802 7.59573 26.1509 7.76163 26.1509 7.76163C26.1509 7.76163 25.7505 9.88736 25.7505 9.8908C25.7505 9.8908 24.7922 14.4103 24.7471 14.6233C25.7232 14.6098 26.1233 14.6098 26.2917 14.6311ZM27.0337 10.8549C27.0337 10.8549 27.4595 8.7335 27.4575 8.74154L27.4713 8.63276L27.4773 8.54981L27.6474 8.5699C27.6474 8.5699 28.5255 8.65629 28.546 8.65859C28.8926 8.81215 29.0354 9.20796 28.9357 9.72461C28.8447 10.1968 28.5774 10.5937 28.2338 10.7855C27.9509 10.9479 27.6043 10.9614 27.2472 10.9614H27.0162L27.0337 10.8549ZM29.6845 12.6837C29.572 13.233 29.4427 14.2365 30.2444 14.5941C30.5 14.7187 30.729 14.7557 30.9618 14.7422C31.2076 14.727 31.4354 14.5858 31.6464 14.3826C31.6274 14.4661 31.6083 14.5496 31.5893 14.6335L31.6256 14.6871C32.2022 14.6593 32.3811 14.6593 33.0058 14.6647L33.0625 14.6154C33.1537 14.0011 33.2396 13.4047 33.4767 12.2296C33.5922 11.6667 33.7075 11.1093 33.826 10.5488L33.8075 10.487C33.1625 10.624 32.9901 10.6532 32.3696 10.754L32.3225 10.7979C32.3162 10.855 32.3097 10.9098 32.3037 10.9647C32.2072 10.7861 32.0674 10.6337 31.8516 10.5387C31.5757 10.4144 30.9277 10.5746 30.3707 11.1555C29.9792 11.5703 29.7913 12.1386 29.6845 12.6837ZM31.0392 12.7173C31.1773 12.0402 31.3359 11.4672 31.7469 11.4672C32.0067 11.4672 32.1436 11.7419 32.1158 12.2104C32.0937 12.3272 32.0699 12.4503 32.0416 12.5895C32.0005 12.7907 31.9559 12.9902 31.9125 13.19C31.8684 13.3266 31.8171 13.4555 31.7607 13.5413C31.6549 13.713 31.4033 13.8194 31.2585 13.8194C31.2174 13.8194 30.9638 13.8194 30.955 13.3912C30.953 13.1779 30.9914 12.9584 31.0392 12.7173ZM38.1135 10.4816L38.0636 10.4164C37.4253 10.5645 37.3098 10.5881 36.7234 10.6788L36.6803 10.7281C36.6783 10.7362 36.6766 10.7485 36.6736 10.7597L36.6716 10.7485C36.235 11.9021 36.2478 11.6532 35.8925 12.5614C35.8905 12.52 35.8905 12.4942 35.8885 12.4503L35.7995 10.4816L35.7436 10.4164C35.0751 10.5645 35.0593 10.5881 34.4418 10.6788L34.3937 10.7281C34.387 10.7517 34.387 10.7775 34.3829 10.8056L34.387 10.8157C34.4641 11.2674 34.4456 11.1667 34.523 11.8797C34.5591 12.2296 34.6072 12.5815 34.6433 12.927C34.7042 13.5054 34.7383 13.7901 34.8127 14.6728C34.3957 15.4609 34.297 15.7592 33.8956 16.4509L33.8983 16.4578L33.6156 16.9698C33.5833 17.0238 33.554 17.0608 33.5129 17.0766C33.4678 17.1022 33.4092 17.1068 33.3277 17.1068H33.1711L32.9383 17.9937L33.7369 18.0095C34.2058 18.0072 34.5005 17.756 34.6591 17.4185L35.1613 16.4328H35.1533L35.2061 16.3633C35.5439 15.5304 38.1135 10.4816 38.1135 10.4816ZM29.6845 22.1299H29.3457L30.5997 17.3793H31.0156L31.1477 16.8899L31.1605 17.4341C31.145 17.7705 31.376 18.0687 31.9829 18.0194H32.6848L32.9264 17.1046H32.6623C32.5104 17.1046 32.44 17.0607 32.4488 16.9665L32.436 16.4129H31.1362V16.4157C30.7159 16.4258 29.461 16.4619 29.2069 16.5394C28.8994 16.6301 28.5754 16.8971 28.5754 16.8971L28.7027 16.4071H27.4869L27.2335 17.3793L25.9628 22.2025H25.7162L25.4744 23.1107H27.8961L27.8149 23.4135H29.0082L29.0874 23.1107H29.4222L29.6845 22.1299ZM28.6909 18.3446C28.4962 18.4063 28.1339 18.5934 28.1339 18.5934L28.4561 17.3793H29.4222L29.1891 18.2639C29.1891 18.2639 28.8907 18.284 28.6909 18.3446ZM28.7095 20.0791C28.7095 20.0791 28.406 20.1227 28.2063 20.1744C28.0096 20.2427 27.6407 20.4579 27.6407 20.4579L27.9735 19.1945H28.9445L28.7095 20.0791ZM28.1682 22.1411H27.1992L27.4801 21.0748H28.4461L28.1682 22.1411ZM30.5018 19.1945H31.8986L31.6979 19.939H30.2826L30.0701 20.753H31.3085L30.3708 22.2654C30.3051 22.3764 30.2462 22.4158 30.1808 22.4471C30.1152 22.4852 30.029 22.53 29.9292 22.53H29.5857L29.3496 23.4215H30.2482C30.7153 23.4215 30.9912 23.1781 31.195 22.8587L31.838 21.8506L31.9761 22.8742C32.0054 23.0659 32.1257 23.1781 32.2071 23.2217C32.2971 23.2734 32.39 23.3621 32.5213 23.3753C32.6622 23.3822 32.7639 23.3876 32.8316 23.3876H33.2731L33.5382 22.3899H33.3641C33.2641 22.3899 33.0919 22.3707 33.0626 22.3348C33.0333 22.2912 33.0333 22.224 33.0175 22.1219L32.8774 21.096H32.3038L32.5554 20.753H33.968L34.1852 19.939H32.8774L33.0811 19.1945H34.385L34.6268 18.2762H30.7397L30.5018 19.1945ZM18.7046 22.3484L19.0306 21.1061H20.3705L20.6153 20.1822H19.2742L19.4789 19.4176H20.7895L21.0323 18.5229H17.7531L17.5153 19.4176H18.2603L18.0616 20.1822H17.3146L17.067 21.1219H17.8118L17.3772 22.7655C17.3186 22.983 17.4048 23.066 17.4594 23.167C17.5153 23.2655 17.572 23.3306 17.6993 23.3676C17.8306 23.4012 17.9205 23.4213 18.0428 23.4213H19.5534L19.8225 22.3978L19.1529 22.5031C19.0236 22.5031 18.6655 22.4853 18.7046 22.3484ZM18.8583 16.4015L18.5187 17.1045C18.4461 17.258 18.3807 17.3533 18.3218 17.3972C18.2699 17.4342 18.1672 17.4497 18.0183 17.4497H17.8412L17.6044 18.349H18.1927C18.4756 18.349 18.6929 18.2302 18.7967 18.1708C18.9082 18.1025 18.9375 18.1415 19.0237 18.0462L19.2224 17.849H21.0597L21.3035 16.9127H19.9586L20.1934 16.4015H18.8583ZM21.5708 22.3665C21.5394 22.3148 21.562 22.2238 21.6099 22.0344L22.112 20.1305H23.8985C24.1588 20.1262 24.3468 20.1228 24.4691 20.1127C24.6004 20.0969 24.7432 20.0433 24.8988 19.9468C25.0594 19.8458 25.1416 19.7393 25.2111 19.617C25.2885 19.495 25.4128 19.2281 25.5195 18.8165L26.1508 16.4072L24.2969 16.4195C24.2969 16.4195 23.7261 16.516 23.4747 16.6224C23.2211 16.7413 22.8588 17.0731 22.8588 17.0731L23.0262 16.4126H21.881L20.2777 22.5031C20.2208 22.7396 20.1828 22.9112 20.174 23.0143C20.171 23.1254 20.2963 23.2353 20.3775 23.3182C20.4734 23.4012 20.6153 23.3877 20.7513 23.4012C20.8944 23.4135 21.0979 23.4213 21.3788 23.4213H22.2589L22.529 22.3765L21.7412 22.4618C21.657 22.4618 21.5961 22.4101 21.5708 22.3665ZM22.436 18.8446H24.3124L24.1932 19.2729C24.1764 19.2829 24.1363 19.2516 23.9453 19.2775H22.3205L22.436 18.8446ZM22.8119 17.4083H24.7041L24.568 17.9241C24.568 17.9241 23.6762 17.9141 23.5334 17.9442C22.9049 18.0688 22.5378 18.4534 22.5378 18.4534L22.8119 17.4083ZM24.2352 20.7069C24.2196 20.771 24.1951 20.81 24.1607 20.8393C24.1226 20.8674 24.061 20.8774 23.969 20.8774H23.7017L23.7174 20.3559H22.6053L22.5602 22.9056C22.5585 23.0896 22.574 23.1961 22.6915 23.2813C22.8091 23.3878 23.1712 23.4013 23.6586 23.4013H24.3554L24.607 22.4469L24.0004 22.4851L23.7986 22.4986C23.7711 22.4851 23.7448 22.4727 23.7154 22.4392C23.6899 22.4102 23.6468 22.428 23.6538 22.244L23.6586 21.5904L24.2948 21.5603C24.6384 21.5603 24.7852 21.4323 24.9105 21.3103C25.03 21.1935 25.0691 21.0591 25.1142 20.8774L25.221 20.2988H24.3467L24.2352 20.7069Z" fill="#FEFEFE"/>
</svg>
