<svg width="42" height="30" viewBox="0 0 42 30" fill="none" xmlns="http://www.w3.org/2000/svg">
<path d="M41.2547 26.9824C41.2547 28.3796 40.1646 29.5122 38.8198 29.5122H2.49926C1.15455 29.5122 0.0644531 28.3796 0.0644531 26.9824V2.52966C0.0644531 1.13252 1.15455 0 2.49926 0H38.8198C40.1646 0 41.2547 1.13261 41.2547 2.52966V26.9824Z" fill="white"/>
<path d="M9.21528 14.9256L8.24811 10.1054C8.08279 9.44071 7.6017 9.24296 7.00058 9.2168H2.56636L2.52686 9.43703C5.98048 10.3069 8.26565 12.4052 9.21528 14.9256Z" fill="#F79F1A"/>
<path d="M19.4813 9.31592H16.6167L14.8276 20.2255H17.6875L19.4813 9.31592Z" fill="#059BBF"/>
<path d="M10.9567 20.2137L15.4627 9.32251H12.4305L9.62737 16.7635L9.32818 15.6401C8.77871 14.2885 7.20833 12.3431 5.36475 11.1185L7.92707 20.2174L10.9567 20.2137Z" fill="#059BBF"/>
<path d="M27.6595 16.6576C27.6701 15.419 26.9046 14.4743 25.2551 13.694C24.2526 13.19 23.6416 12.8539 23.6489 12.3425C23.6489 11.8906 24.1663 11.4053 25.2875 11.4053C26.2256 11.3903 26.9011 11.6031 27.4294 11.8234L27.6883 11.9467L28.0765 9.58329C27.5086 9.36288 26.6209 9.12769 25.5106 9.12769C22.6822 9.12769 20.6913 10.6063 20.6733 12.727C20.6553 14.2952 22.0966 15.1689 23.1818 15.6915C24.2958 16.2243 24.6696 16.5652 24.6624 17.0431C24.6552 17.7739 23.7746 18.1071 22.9517 18.1071C21.8053 18.1071 21.1979 17.9429 20.2559 17.5352L19.8899 17.3605L19.4878 19.8051C20.1558 20.1085 21.3919 20.3736 22.675 20.3846C25.6828 20.3846 27.6379 18.9248 27.6595 16.6576Z" fill="#059BBF"/>
<path d="M31.0509 18.5895C31.3779 18.5895 34.2996 18.5933 34.7166 18.5933C34.8029 18.9732 35.0652 20.2285 35.0652 20.2285H37.721L35.403 9.32642H33.1928C32.5064 9.32642 31.9962 9.52057 31.6942 10.2298L27.4429 20.2285H30.451C30.4508 20.2285 30.9395 18.8846 31.0509 18.5895ZM33.013 13.3064C32.9988 13.3362 33.2503 12.6754 33.3941 12.2647L33.588 13.2055C33.588 13.2055 34.1344 15.8117 34.2493 16.3568H31.8738C32.111 15.7296 33.013 13.3064 33.013 13.3064Z" fill="#059BBF"/>
<path d="M38.8198 0H2.49926C1.15455 0 0.0644531 1.13252 0.0644531 2.52966V5.1551H41.2547V2.52966C41.2547 1.13252 40.1646 0 38.8198 0Z" fill="#059BBF"/>
<path d="M38.8198 29.5128H2.49926C1.15455 29.5128 0.0644531 28.3802 0.0644531 26.9831V24.3577H41.2547V26.9831C41.2547 28.3802 40.1646 29.5128 38.8198 29.5128Z" fill="#F79F1A"/>
</svg>
