<svg width="29" height="21" viewBox="0 0 29 21" fill="none" xmlns="http://www.w3.org/2000/svg">
<rect x="0.03125" y="0.833984" width="28.03" height="20.0214" rx="2.00214" fill="#2DC100"/>
<path d="M12.3341 10.7618C12.2964 10.9136 12.119 10.9093 12.087 10.7561C12.0808 10.7264 12.0747 10.6967 12.0687 10.6669C11.9927 10.2955 11.9335 9.92066 11.8526 9.55007C11.8422 9.50203 11.8232 9.48766 11.7757 9.48835C11.6001 9.49095 11.4247 9.48944 11.2491 9.48971C11.1533 9.48971 11.1533 9.48971 11.1777 9.58181C11.3723 10.3033 11.5669 11.0247 11.7616 11.7461C11.7872 11.8411 11.8231 11.9317 11.8829 12.0112C12.0249 12.2002 12.2695 12.2165 12.4346 12.0486C12.5013 11.9793 12.5485 11.8936 12.5715 11.8003C12.6281 11.5897 12.6842 11.3789 12.7395 11.1679C12.7903 10.9736 12.8399 10.7793 12.8917 10.5763C12.8959 10.5599 12.9191 10.5589 12.9244 10.5751C13.0377 10.9819 13.151 11.3889 13.2642 11.7959C13.2863 11.8821 13.3285 11.9619 13.3874 12.0286C13.5653 12.225 13.8209 12.2054 13.9651 11.9841C14.0038 11.9251 14.0334 11.8605 14.0528 11.7925C14.0884 11.6657 14.1219 11.5382 14.1554 11.4108C14.3183 10.7913 14.4814 10.1718 14.6448 9.55239C14.6585 9.5008 14.646 9.48821 14.5962 9.48876C14.4137 9.4904 14.2313 9.4904 14.0488 9.48876C14.0065 9.48876 13.9868 9.5034 13.9793 9.5435C13.9608 9.64162 13.9404 9.73947 13.9211 9.83745C13.8348 10.274 13.7551 10.7122 13.635 11.1414C13.6268 11.1708 13.596 11.1663 13.5873 11.137C13.5773 11.1032 13.5679 11.0712 13.5598 11.039C13.4595 10.6311 13.3591 10.2231 13.2588 9.81515C13.2383 9.72618 13.196 9.64373 13.1356 9.57524C13.0254 9.45208 12.7739 9.45523 12.6672 9.59495C12.622 9.65228 12.5884 9.71774 12.5679 9.78778C12.4773 10.1094 12.4138 10.4376 12.3341 10.7618Z" fill="white"/>
<path d="M18.6441 10.3692C18.6445 10.3692 18.6448 10.3689 18.6448 10.3685C18.6448 10.368 18.6452 10.3677 18.6456 10.3677C18.732 10.3677 18.8183 10.3677 18.9048 10.3677C18.9423 10.3677 18.9607 10.3561 18.9515 10.315C18.8675 9.93484 18.6723 9.64184 18.3027 9.48474C18.0528 9.37854 17.7932 9.35418 17.5265 9.39127C17.2088 9.43533 16.938 9.56917 16.7438 9.82919C16.5711 10.0612 16.4783 10.3082 16.6343 10.5946C16.7221 10.7562 16.7585 10.9367 16.7531 11.1213C16.7487 11.2694 16.721 11.4152 16.6861 11.5593C16.6811 11.5776 16.6803 11.5969 16.6837 11.6156C16.6871 11.6343 16.6947 11.652 16.7059 11.6674C16.8025 11.8178 16.9379 11.9394 17.0978 12.0194C17.3892 12.1679 17.6989 12.1911 18.0159 12.1393C18.2007 12.1091 18.3811 12.0571 18.5359 11.9464C18.8019 11.7559 18.9137 11.4776 18.9678 11.1683C18.9767 11.1175 18.9508 11.1048 18.907 11.1046C18.7498 11.1046 18.5923 11.1059 18.4353 11.0999C18.3641 11.0973 18.3349 11.1192 18.3161 11.1907C18.2522 11.4356 18.0241 11.6139 17.7668 11.6319C17.5188 11.6495 17.3315 11.5338 17.2173 11.2856C17.0985 11.0269 17.0766 10.7557 17.1307 10.4781C17.1644 10.3053 17.228 10.1419 17.3683 10.0282C17.6806 9.775 18.1894 9.92677 18.3188 10.3087C18.3351 10.357 18.3577 10.3721 18.406 10.37C18.4855 10.3665 18.5645 10.3692 18.6441 10.3692Z" fill="white"/>
<path d="M19.0872 10.8295C19.0872 11.251 19.0872 11.6725 19.0872 12.094C19.0872 12.1296 19.0781 12.1686 19.1377 12.1679C19.3086 12.1658 19.4798 12.1667 19.6506 12.1679C19.6858 12.1679 19.7003 12.1542 19.6986 12.1194C19.697 12.0847 19.6986 12.051 19.6986 12.0169C19.6986 11.6136 19.6999 11.2103 19.6969 10.807C19.6969 10.7459 19.7138 10.7296 19.7734 10.7314C19.9169 10.7356 20.0607 10.7297 20.2042 10.734C20.3906 10.7396 20.4837 10.8365 20.4846 11.0213C20.4859 11.3772 20.4869 11.7323 20.4846 12.0877C20.4846 12.1504 20.5035 12.1706 20.5667 12.1688C20.7172 12.1645 20.8678 12.1656 21.0183 12.1673C21.0666 12.168 21.0896 12.1543 21.0888 12.1023C21.0825 11.7016 21.1049 11.3004 21.0807 10.8998C21.0543 10.4639 20.7386 10.1599 20.3041 10.15C20.1286 10.146 19.953 10.1491 19.7776 10.1521C19.7282 10.1529 19.7131 10.1384 19.7092 10.0872C19.6967 9.90929 19.6974 9.73206 19.6992 9.55443C19.6992 9.50694 19.6855 9.49148 19.6376 9.4923C19.4804 9.49504 19.3228 9.49627 19.1657 9.4923C19.1025 9.49052 19.0855 9.50968 19.0859 9.57222C19.0884 9.99099 19.0872 10.4102 19.0872 10.8295Z" fill="white"/>
<path d="M24.275 9.79533C24.275 9.71322 24.2736 9.63111 24.275 9.549C24.2759 9.5089 24.2636 9.49166 24.2202 9.49221C24.063 9.49399 23.9055 9.49426 23.7484 9.49221C23.7025 9.49152 23.6902 9.50904 23.6906 9.55215C23.6925 9.71158 23.6898 9.87115 23.6923 10.0311C23.6931 10.0794 23.6765 10.0948 23.6294 10.0939C23.5246 10.0919 23.4196 10.0963 23.3147 10.0939C23.2701 10.0931 23.2484 10.1027 23.2501 10.1536C23.2536 10.2605 23.2545 10.3678 23.2508 10.4748C23.2489 10.5319 23.271 10.5506 23.3251 10.5499C23.4299 10.5487 23.5349 10.5521 23.6398 10.5516C23.6775 10.5516 23.6925 10.5644 23.6918 10.6032C23.6892 10.7467 23.6944 10.8906 23.6861 11.0336C23.6738 11.2434 23.6724 11.4522 23.7065 11.6601C23.7532 11.9498 23.8832 12.0875 24.1718 12.1479C24.336 12.1823 24.5032 12.166 24.6692 12.167C24.708 12.167 24.7122 12.1422 24.7121 12.1122C24.7121 12.0324 24.7121 11.9527 24.7121 11.873C24.7129 11.6933 24.7121 11.6996 24.5327 11.6655C24.2958 11.6204 24.2822 11.5896 24.2699 11.379C24.2549 11.1212 24.281 10.8644 24.2714 10.6074C24.2698 10.5653 24.2859 10.5512 24.3268 10.5517C24.4339 10.5534 24.5413 10.5487 24.6482 10.5534C24.7128 10.5562 24.7303 10.5326 24.7274 10.4712C24.723 10.3644 24.7252 10.2571 24.7274 10.1501C24.7284 10.109 24.7171 10.0934 24.6742 10.0941C24.5603 10.0959 24.4463 10.0924 24.332 10.0941C24.2885 10.0941 24.2706 10.0804 24.2724 10.0352C24.2773 9.9549 24.2751 9.87498 24.275 9.79533Z" fill="white"/>
<path d="M8.62732 9.24865C8.4178 8.56891 7.96564 8.10184 7.33462 7.80076C6.73685 7.51543 6.10692 7.44207 5.45729 7.56524C4.83475 7.68321 4.29145 7.95718 3.8798 8.44739C3.35976 9.0665 3.22291 9.76308 3.52672 10.5237C3.69477 10.9437 3.99202 11.2653 4.35878 11.5227C4.40257 11.5534 4.40941 11.5775 4.39176 11.627C4.31813 11.8371 4.25026 12.0492 4.18032 12.2606C4.16683 12.3011 4.19445 12.3247 4.23205 12.3046C4.48569 12.1704 4.73877 12.0355 4.99131 11.8999C5.00961 11.8888 5.03011 11.8818 5.05138 11.8794C5.07265 11.8771 5.09418 11.8794 5.11447 11.8862C5.42426 11.9794 5.74605 12.0267 6.06956 12.0266C6.17015 12.0266 6.16974 12.0266 6.14305 11.9326C6.05779 11.6315 6.04274 11.3261 6.11431 11.0217C6.23529 10.5081 6.54266 10.1229 6.97319 9.83274C7.4374 9.52003 7.9573 9.39481 8.51291 9.40138C8.67221 9.40425 8.67467 9.40179 8.62732 9.24865ZM5.109 9.34076C5.06227 9.34094 5.01597 9.33191 4.97273 9.31419C4.92949 9.29648 4.89017 9.27042 4.857 9.23751C4.82383 9.2046 4.79747 9.16547 4.77942 9.12237C4.76138 9.07927 4.752 9.03303 4.75182 8.98631C4.75017 8.7798 4.91604 8.60791 5.11365 8.61024C5.30525 8.61243 5.48042 8.78377 5.48151 8.97057C5.48274 9.17886 5.32057 9.34007 5.109 9.34076ZM6.93125 9.34082C6.93111 9.34078 6.93097 9.34076 6.93083 9.34076C6.73236 9.34064 6.5807 9.18617 6.58098 8.98385C6.58098 8.77172 6.73042 8.61435 6.93419 8.61161C6.98257 8.61152 7.03049 8.62096 7.07522 8.63941C7.11994 8.65785 7.16059 8.68493 7.19485 8.71909C7.2291 8.75326 7.25628 8.79384 7.27484 8.83851C7.2934 8.88319 7.30297 8.93109 7.30301 8.97946C7.30232 9.18385 7.14122 9.34051 6.93167 9.34089C6.93153 9.34089 6.93139 9.34087 6.93125 9.34082Z" fill="white"/>
<path d="M10.6537 11.2095C10.5981 10.7655 10.38 10.4033 10.0463 10.1115C9.58704 9.71012 9.04128 9.54056 8.43913 9.53427C8.37755 9.53427 8.31596 9.53139 8.25465 9.53509C8.19334 9.53878 8.13258 9.54877 8.07182 9.55698C7.51976 9.63677 7.03982 9.86025 6.65992 10.2761C6.3921 10.5694 6.23075 10.9147 6.20653 11.3122C6.17533 11.8231 6.3598 12.2597 6.71521 12.6201C7.17174 13.0832 7.74159 13.2866 8.38233 13.3092C8.66138 13.319 8.93549 13.2707 9.20345 13.1967C9.25074 13.182 9.30183 13.1858 9.34646 13.2072C9.55173 13.2999 9.74168 13.4233 9.94258 13.5251C9.959 13.5335 9.97816 13.5561 9.99732 13.5361C10.0103 13.5224 9.99732 13.5019 9.9924 13.4848C9.93766 13.3159 9.88592 13.1466 9.82927 12.9784C9.81435 12.9341 9.8138 12.9064 9.85664 12.8769C9.97995 12.7905 10.0932 12.6906 10.1943 12.5789C10.551 12.1912 10.7199 11.7363 10.6537 11.2095ZM7.75678 11.1023C7.71922 11.103 7.68191 11.0961 7.64704 11.0821C7.61218 11.0681 7.58047 11.0473 7.5538 11.0208C7.52713 10.9943 7.50602 10.9628 7.49174 10.9281C7.47745 10.8933 7.47028 10.8561 7.47063 10.8185C7.46981 10.6528 7.59379 10.5229 7.75323 10.5225C7.91266 10.5221 8.05129 10.6601 8.05129 10.817C8.05129 10.9767 7.92292 11.1009 7.75678 11.1023ZM9.21932 11.1022C9.21932 11.1023 9.21929 11.1023 9.21925 11.1023C9.06354 11.1013 8.9203 10.9568 8.92194 10.8025C8.92345 10.6656 9.07905 10.5229 9.22712 10.5232C9.38108 10.5232 9.51533 10.6611 9.51533 10.8189C9.51533 10.9767 9.38508 11.1032 9.21939 11.1022C9.21935 11.1022 9.21932 11.1022 9.21932 11.1022Z" fill="white"/>
<path d="M23.1599 11.4277C23.1599 11.2272 23.1542 11.0266 23.1612 10.8264C23.1739 10.4632 22.9148 10.2105 22.6801 10.135C22.3778 10.0381 22.0702 10.0407 21.766 10.1287C21.482 10.2108 21.3105 10.3987 21.2581 10.6935C21.2498 10.7406 21.2644 10.7515 21.3031 10.7519C21.4491 10.7536 21.5951 10.7549 21.7411 10.7559C21.7524 10.7568 21.7638 10.7541 21.7735 10.7481C21.7832 10.742 21.7907 10.733 21.7948 10.7224C21.8815 10.5346 22.0412 10.4779 22.2328 10.4855C22.4517 10.4942 22.5412 10.5789 22.5824 10.7898C22.5961 10.8582 22.5705 10.8595 22.5189 10.8602C22.2916 10.8633 22.0629 10.8396 21.8375 10.8866C21.6186 10.9319 21.4258 11.0188 21.3064 11.2217C21.2281 11.3547 21.2062 11.5012 21.2251 11.6502C21.2618 11.9405 21.3893 12.0716 21.6245 12.1345C21.7039 12.1552 21.7857 12.1654 21.8678 12.165C22.2757 12.1657 22.6838 12.165 23.0918 12.1664C23.1443 12.1664 23.1629 12.1527 23.1621 12.098C23.1579 11.8742 23.1599 11.651 23.1599 11.4277ZM22.5284 11.7483C22.4599 11.7483 22.3915 11.7483 22.3231 11.7483C22.2047 11.7518 22.0863 11.7563 21.9729 11.7115C21.8026 11.6443 21.7625 11.4913 21.8771 11.3479C21.8896 11.3345 21.9066 11.3263 21.9249 11.3249C22.1264 11.288 22.3313 11.2722 22.5362 11.2777C22.5661 11.2777 22.576 11.2914 22.5759 11.3188C22.5759 11.4486 22.575 11.5788 22.5759 11.7082C22.5774 11.7448 22.5567 11.7486 22.5284 11.7483Z" fill="white"/>
<path d="M15.1274 11.2727C15.3528 11.2745 15.5786 11.2727 15.8038 11.2727C15.8041 11.2727 15.8044 11.2724 15.8044 11.2721C15.8044 11.2717 15.8047 11.2715 15.805 11.2715C16.0281 11.2715 16.2513 11.2698 16.475 11.2726C16.5324 11.2726 16.5483 11.2533 16.5483 11.1976C16.5494 11.0632 16.5346 10.9292 16.5042 10.7984C16.4379 10.524 16.3057 10.2948 16.0426 10.1634C15.8118 10.0449 15.5483 10.0058 15.293 10.0523C15.0361 10.0982 14.8174 10.2137 14.6771 10.4421C14.5081 10.7183 14.4469 11.0206 14.5068 11.3396C14.5752 11.706 14.7763 11.9716 15.1363 12.0997C15.3217 12.1658 15.5132 12.1735 15.7087 12.1498C16.0882 12.1037 16.3664 11.927 16.5068 11.5593C16.5279 11.5045 16.5196 11.4851 16.4598 11.4856C16.3117 11.4869 16.1635 11.4856 16.0154 11.4843C15.9996 11.4837 15.9839 11.4867 15.9694 11.493C15.9549 11.4993 15.942 11.5088 15.9317 11.5208C15.8761 11.5784 15.809 11.6237 15.7349 11.6537C15.4996 11.7511 15.1658 11.7075 15.0917 11.3597C15.0898 11.3508 15.0869 11.3422 15.0829 11.334C15.0594 11.2863 15.0766 11.2723 15.1274 11.2727ZM15.0724 10.7977C15.0726 10.7977 15.0727 10.7976 15.0727 10.7975C15.1395 10.6555 15.2703 10.5184 15.4926 10.5176C15.7116 10.5167 15.8419 10.6154 15.9281 10.8014C15.9471 10.8424 15.9418 10.8575 15.894 10.8569C15.7622 10.8552 15.6303 10.8563 15.4984 10.8563C15.3688 10.8563 15.2392 10.8548 15.1096 10.8563C15.0577 10.8575 15.0514 10.8421 15.0721 10.7979C15.0722 10.7978 15.0723 10.7977 15.0724 10.7977Z" fill="white"/>
</svg>
