<svg width="43" height="30" viewBox="0 0 43 30" fill="none" xmlns="http://www.w3.org/2000/svg">
<rect x="0.818359" y="0.000488281" width="41.5102" height="29.7982" rx="2.96501" fill="#2DC100"/>
<path d="M19.0549 14.7754C18.9994 15.0007 18.7363 14.9943 18.689 14.7671C18.6798 14.7229 18.6708 14.6786 18.662 14.6343C18.5495 14.0815 18.4617 13.5236 18.3419 12.9721C18.3265 12.9006 18.2984 12.8792 18.2281 12.8802C17.968 12.8841 17.7082 12.8818 17.4482 12.8822C17.3063 12.8822 17.3063 12.8822 17.3424 13.0193C17.6306 14.0931 17.9188 15.1668 18.2072 16.2405C18.2451 16.3818 18.2982 16.5167 18.3867 16.635C18.5971 16.9163 18.9593 16.9405 19.2039 16.6906C19.3026 16.5875 19.3725 16.46 19.4066 16.3211C19.4905 16.0076 19.5734 15.6939 19.6554 15.3799C19.7306 15.0907 19.8041 14.8015 19.8807 14.4995C19.8869 14.475 19.9214 14.4737 19.9292 14.4976C20.097 15.1031 20.2648 15.7087 20.4325 16.3146C20.4652 16.4429 20.5277 16.5616 20.6149 16.6609C20.8783 16.9532 21.2569 16.924 21.4703 16.5947C21.5277 16.5068 21.5715 16.4106 21.6002 16.3095C21.6529 16.1207 21.7026 15.9311 21.7522 15.7415C21.9934 14.8194 22.235 13.8974 22.477 12.9755C22.4972 12.8987 22.4788 12.88 22.405 12.8808C22.1348 12.8833 21.8646 12.8833 21.5943 12.8808C21.5317 12.8808 21.5025 12.9026 21.4914 12.9623C21.464 13.1083 21.4338 13.2539 21.4053 13.3998C21.2774 14.0495 21.1594 14.7017 20.9815 15.3404C20.9693 15.3842 20.9237 15.3775 20.9109 15.334C20.8961 15.2836 20.8822 15.2359 20.8702 15.1881C20.7216 14.581 20.573 13.9738 20.4243 13.3666C20.394 13.2342 20.3313 13.1115 20.2419 13.0095C20.0788 12.8262 19.7063 12.8309 19.5482 13.0389C19.4814 13.1242 19.4315 13.2216 19.4013 13.3258C19.2671 13.8045 19.1731 14.2929 19.0549 14.7754Z" fill="white"/>
<path d="M28.3755 14.198C28.3761 14.198 28.3766 14.1975 28.3766 14.1968C28.3766 14.1962 28.3771 14.1957 28.3777 14.1957C28.5056 14.1957 28.6335 14.1957 28.7616 14.1957C28.8172 14.1957 28.8443 14.1784 28.8307 14.1173C28.7063 13.5515 28.4173 13.1154 27.8699 12.8816C27.4998 12.7235 27.1154 12.6873 26.7204 12.7425C26.25 12.8081 25.8489 13.0073 25.5613 13.3942C25.3056 13.7395 25.1682 14.1071 25.3992 14.5334C25.5291 14.774 25.583 15.0426 25.5751 15.3174C25.5686 15.5377 25.5275 15.7547 25.4758 15.9691C25.4684 15.9965 25.4672 16.0251 25.4723 16.0529C25.4774 16.0808 25.4886 16.1071 25.5052 16.13C25.6483 16.3539 25.8488 16.5349 26.0856 16.6539C26.5171 16.8749 26.9757 16.9095 27.4451 16.8323C27.7189 16.7875 27.986 16.7101 28.2152 16.5453C28.6092 16.2618 28.7748 15.8475 28.8549 15.3872C28.868 15.3117 28.8297 15.2927 28.7649 15.2925C28.532 15.2925 28.2987 15.2944 28.0663 15.2854C27.9609 15.2815 27.9175 15.3141 27.8898 15.4206C27.7951 15.785 27.4573 16.0504 27.0763 16.0773C26.709 16.1034 26.4316 15.9313 26.2626 15.5618C26.0866 15.1768 26.0542 14.7731 26.1343 14.3601C26.1841 14.1028 26.2784 13.8596 26.4861 13.6904C26.9486 13.3136 27.7021 13.5395 27.8938 14.1079C27.9179 14.1798 27.9514 14.2022 28.0229 14.1992C28.1407 14.1939 28.2577 14.1979 28.3755 14.198Z" fill="white"/>
<path d="M29.0468 14.8724C29.0468 15.4997 29.0468 16.127 29.0468 16.7544C29.0468 16.8073 29.0334 16.8654 29.1215 16.8644C29.3747 16.8613 29.6282 16.8625 29.8811 16.8644C29.9332 16.8644 29.9547 16.844 29.9523 16.7923C29.9498 16.7405 29.9523 16.6904 29.9523 16.6397C29.9523 16.0395 29.9541 15.4392 29.9496 14.839C29.9496 14.7479 29.9748 14.7237 30.0629 14.7263C30.2755 14.7327 30.4885 14.7239 30.7009 14.7302C30.977 14.7386 31.115 14.8828 31.1162 15.1579C31.1182 15.6875 31.1196 16.2161 31.1162 16.745C31.1162 16.8383 31.1442 16.8684 31.2378 16.8658C31.4607 16.8593 31.6837 16.8609 31.9066 16.8635C31.9781 16.8646 32.0122 16.8442 32.011 16.7668C32.0016 16.1704 32.0349 15.5732 31.999 14.9771C31.9599 14.3284 31.4923 13.8758 30.8489 13.8611C30.589 13.8552 30.329 13.8597 30.0692 13.8642C29.996 13.8654 29.9738 13.8438 29.9679 13.7676C29.9494 13.5029 29.9504 13.2391 29.9531 12.9747C29.9531 12.904 29.9328 12.881 29.8619 12.8822C29.629 12.8863 29.3957 12.8882 29.1631 12.8822C29.0695 12.8796 29.0443 12.9081 29.0449 13.0012C29.0486 13.6244 29.0468 14.2483 29.0468 14.8724Z" fill="white"/>
<path d="M36.7152 13.3333C36.7152 13.211 36.7131 13.0888 36.7152 12.9666C36.7166 12.907 36.6983 12.8813 36.6341 12.8821C36.4012 12.8848 36.168 12.8852 35.9353 12.8821C35.8674 12.8811 35.8492 12.9072 35.8498 12.9713C35.8526 13.2086 35.8486 13.4461 35.8522 13.6842C35.8534 13.7561 35.8289 13.7789 35.7592 13.7777C35.6039 13.7746 35.4485 13.7811 35.2931 13.7777C35.227 13.7765 35.195 13.7907 35.1974 13.8665C35.2027 14.0256 35.2039 14.1852 35.1984 14.3445C35.1956 14.4294 35.2284 14.4574 35.3085 14.4563C35.4637 14.4545 35.6191 14.4596 35.7746 14.4588C35.8303 14.4588 35.8526 14.4779 35.8516 14.5356C35.8478 14.7492 35.8555 14.9633 35.8431 15.1761C35.8248 15.4884 35.8228 15.7992 35.8733 16.1086C35.9424 16.5398 36.1349 16.7447 36.5624 16.8347C36.8056 16.8858 37.0532 16.8616 37.299 16.863C37.3564 16.863 37.3627 16.8261 37.3625 16.7815C37.3625 16.6628 37.3625 16.544 37.3625 16.4255C37.3637 16.1581 37.3625 16.1674 37.0968 16.1167C36.746 16.0495 36.7259 16.0037 36.7077 15.6902C36.6854 15.3065 36.7241 14.9244 36.7099 14.5419C36.7075 14.4792 36.7314 14.4582 36.792 14.459C36.9505 14.4614 37.1096 14.4545 37.2678 14.4614C37.3635 14.4657 37.3894 14.4305 37.3852 14.3392C37.3787 14.1801 37.3819 14.0205 37.3852 13.8612C37.3866 13.8001 37.37 13.7769 37.3063 13.7779C37.1377 13.7805 36.9689 13.7754 36.7997 13.7779C36.7352 13.7779 36.7087 13.7575 36.7113 13.6903C36.7186 13.5707 36.7154 13.4518 36.7152 13.3333Z" fill="white"/>
<path d="M13.5486 12.5233C13.2383 11.5116 12.5687 10.8165 11.6342 10.3684C10.749 9.9437 9.81612 9.83453 8.85406 10.0178C7.93213 10.1934 7.12754 10.6012 6.51792 11.3308C5.74779 12.2522 5.54512 13.2889 5.99504 14.421C6.24392 15.046 6.68411 15.5247 7.22726 15.9078C7.29211 15.9534 7.30224 15.9893 7.2761 16.063C7.16707 16.3757 7.06654 16.6914 6.96298 17.006C6.94307 17.0661 6.98391 17.1014 7.03959 17.0714C7.4152 16.8718 7.78999 16.6711 8.16398 16.4692C8.19108 16.4526 8.22144 16.4422 8.25294 16.4387C8.28445 16.4352 8.31633 16.4386 8.34638 16.4488C8.80515 16.5875 9.28169 16.658 9.76079 16.6578C9.90975 16.6578 9.90914 16.6578 9.86962 16.5178C9.74336 16.0697 9.72107 15.6151 9.82706 15.1621C10.0062 14.3977 10.4614 13.8244 11.099 13.3926C11.7864 12.9272 12.5564 12.7408 13.3792 12.7506C13.6151 12.7549 13.6187 12.7512 13.5486 12.5233ZM8.33827 12.6604C8.26908 12.6606 8.2005 12.6472 8.13647 12.6208C8.07244 12.5945 8.0142 12.5557 7.96508 12.5067C7.91596 12.4577 7.87693 12.3995 7.8502 12.3353C7.82347 12.2712 7.80958 12.2024 7.80931 12.1328C7.80688 11.8255 8.05252 11.5697 8.34517 11.5731C8.6289 11.5764 8.88831 11.8314 8.88993 12.1094C8.89176 12.4194 8.6516 12.6593 8.33827 12.6604ZM11.0369 12.6605C11.0367 12.6604 11.0365 12.6604 11.0363 12.6604C10.7423 12.6602 10.5177 12.4303 10.5182 12.1292C10.5182 11.8135 10.7395 11.5792 11.0412 11.5752C11.1129 11.575 11.1839 11.5891 11.2501 11.6165C11.3163 11.644 11.3765 11.6843 11.4272 11.7351C11.478 11.786 11.5182 11.8464 11.5457 11.9129C11.5732 11.9794 11.5874 12.0507 11.5874 12.1227C11.5864 12.4268 11.3478 12.66 11.0375 12.6606C11.0373 12.6606 11.0371 12.6605 11.0369 12.6605Z" fill="white"/>
<path d="M16.5323 15.4435C16.45 14.7828 16.127 14.2437 15.6329 13.8094C14.9527 13.212 14.1445 12.9597 13.2527 12.9503C13.1615 12.9503 13.0703 12.946 12.9796 12.9515C12.8888 12.957 12.7988 12.9719 12.7088 12.9841C11.8912 13.1029 11.1805 13.4355 10.6179 14.0545C10.2213 14.4909 9.98232 15.0048 9.94645 15.5965C9.90024 16.3568 10.1734 17.0066 10.6998 17.5431C11.3759 18.2323 12.2198 18.535 13.1686 18.5686C13.5819 18.5832 13.9878 18.5113 14.3846 18.4012C14.4547 18.3793 14.5303 18.3849 14.5964 18.4168C14.9004 18.5547 15.1817 18.7384 15.4792 18.89C15.5036 18.9024 15.5319 18.936 15.5603 18.9063C15.5796 18.8859 15.5603 18.8554 15.553 18.8299C15.4719 18.5786 15.3953 18.3266 15.3114 18.0763C15.2893 18.0103 15.2885 17.9692 15.352 17.9252C15.5346 17.7966 15.7023 17.6479 15.8519 17.4817C16.3803 16.9047 16.6304 16.2277 16.5323 15.4435ZM12.2423 15.2841C12.1866 15.285 12.1314 15.2748 12.0797 15.254C12.0281 15.2331 11.9811 15.2021 11.9416 15.1627C11.9021 15.1234 11.8709 15.0764 11.8497 15.0247C11.8286 14.973 11.818 14.9175 11.8185 14.8616C11.8173 14.615 12.0009 14.4217 12.237 14.4211C12.4731 14.4205 12.6784 14.626 12.6784 14.8594C12.6784 15.0971 12.4883 15.282 12.2423 15.2841ZM14.4081 15.284C14.4081 15.284 14.4081 15.2841 14.408 15.2841C14.1775 15.2826 13.9653 15.0675 13.9678 14.8378C13.97 14.6341 14.2004 14.4217 14.4197 14.4221C14.6477 14.4221 14.8465 14.6274 14.8465 14.8622C14.8465 15.0971 14.6536 15.2854 14.4083 15.2839C14.4082 15.2839 14.4081 15.2839 14.4081 15.284Z" fill="white"/>
<path d="M35.0779 15.7642C35.0779 15.4659 35.0694 15.1673 35.0797 14.8693C35.0985 14.3287 34.7149 13.9527 34.3673 13.8403C33.9196 13.6961 33.464 13.7 33.0135 13.8309C32.593 13.9531 32.339 14.2328 32.2614 14.6715C32.249 14.7416 32.2707 14.7579 32.3281 14.7585C32.5443 14.7609 32.7604 14.7629 32.9766 14.7644C32.9935 14.7658 33.0103 14.7617 33.0247 14.7527C33.039 14.7437 33.0501 14.7303 33.0563 14.7145C33.1846 14.435 33.4211 14.3507 33.7048 14.3619C34.0291 14.375 34.1616 14.501 34.2226 14.8149C34.2429 14.9167 34.205 14.9186 34.1286 14.9196C33.7919 14.9243 33.4533 14.889 33.1195 14.9589C32.7952 15.0263 32.5097 15.1557 32.333 15.4577C32.217 15.6557 32.1846 15.8736 32.2126 16.0954C32.2669 16.5274 32.4558 16.7226 32.804 16.8163C32.9216 16.847 33.0427 16.8622 33.1643 16.8617C33.7684 16.8627 34.3728 16.8617 34.9769 16.8637C35.0548 16.8637 35.0823 16.8433 35.0811 16.7619C35.0748 16.4289 35.0779 16.0967 35.0779 15.7642ZM34.1426 16.2415C34.0412 16.2415 33.9399 16.2415 33.8386 16.2415C33.6633 16.2466 33.4879 16.2533 33.3199 16.1867C33.0678 16.0867 33.0084 15.859 33.1781 15.6455C33.1965 15.6256 33.2218 15.6134 33.2488 15.6113C33.5473 15.5564 33.8507 15.5328 34.1541 15.541C34.1985 15.541 34.2131 15.5614 34.2129 15.6021C34.2129 15.7954 34.2117 15.9891 34.2129 16.1818C34.2151 16.2362 34.1845 16.2419 34.1426 16.2415Z" fill="white"/>
<path d="M23.169 15.5386C23.5029 15.5413 23.8372 15.5386 24.1707 15.5386C24.1712 15.5386 24.1716 15.5382 24.1716 15.5377C24.1716 15.5372 24.172 15.5368 24.1725 15.5368C24.503 15.5368 24.8334 15.5343 25.1647 15.5384C25.2498 15.5384 25.2733 15.5097 25.2733 15.4268C25.275 15.2269 25.2531 15.0274 25.2081 14.8327C25.1098 14.4243 24.914 14.0831 24.5245 13.8876C24.1826 13.7112 23.7923 13.6531 23.4143 13.7222C23.0338 13.7906 22.71 13.9625 22.5023 14.3025C22.252 14.7135 22.1614 15.1634 22.2499 15.6382C22.3513 16.1835 22.6492 16.5788 23.1822 16.7694C23.4568 16.8678 23.7403 16.8792 24.03 16.844C24.5919 16.7753 25.004 16.5124 25.2119 15.9651C25.2431 15.8836 25.2308 15.8547 25.1422 15.8555C24.9229 15.8574 24.7034 15.8555 24.4841 15.8535C24.4607 15.8527 24.4374 15.8571 24.416 15.8665C24.3945 15.8759 24.3754 15.8901 24.3601 15.9079C24.2778 15.9936 24.1785 16.061 24.0687 16.1057C23.7203 16.2507 23.226 16.1857 23.1161 15.6682C23.1134 15.6549 23.1091 15.642 23.1032 15.6299C23.0683 15.5588 23.0938 15.538 23.169 15.5386ZM23.0877 14.8316C23.0878 14.8316 23.088 14.8315 23.0881 14.8314C23.187 14.62 23.3808 14.4159 23.7099 14.4147C24.0342 14.4135 24.2271 14.5603 24.3548 14.8371C24.383 14.8982 24.3751 14.9207 24.3044 14.9198C24.1092 14.9172 23.9138 14.9188 23.7185 14.9188C23.5265 14.9188 23.3346 14.9166 23.1427 14.9188C23.0658 14.9206 23.0566 14.8977 23.0872 14.8319C23.0873 14.8318 23.0875 14.8316 23.0877 14.8316Z" fill="white"/>
</svg>
